<svg width="158" height="22" viewBox="0 0 158 22" fill="none" xmlns="http://www.w3.org/2000/svg">
<g clip-path="url(#clip0_4784_1772)">
<path d="M106.692 17.4816H94.6663L92.6414 21.4373H86.1416L97.4295 0.532715H103.929L115.217 21.4373H108.717L106.692 17.4816ZM96.7544 13.4041H104.635L100.711 5.70562L96.7544 13.4041Z" fill="#00C898"/>
<path d="M85.6241 7.66824C85.6241 8.71297 85.4671 9.67657 85.1533 10.559C84.8391 11.4313 84.3315 12.1869 83.6305 12.8259C82.9395 13.4548 82.0396 13.9467 80.93 14.3017C79.8208 14.6567 78.4706 14.8343 76.8797 14.8343L67.209 10.3764V21.4373H61.3848V0.532715H76.8797C78.4706 0.532715 79.8208 0.710215 80.93 1.06522C82.0396 1.41007 82.9395 1.90201 83.6305 2.54101C84.3315 3.16987 84.8391 3.92045 85.1533 4.79275C85.4671 5.66505 85.6241 6.62355 85.6241 7.66824ZM79.7368 7.75954C79.7368 7.27268 79.6637 6.85683 79.5171 6.51196C79.3813 6.15697 79.1507 5.86789 78.8265 5.64477C78.5019 5.4216 78.0783 5.25933 77.5548 5.15791C77.0313 5.04632 76.388 4.99053 75.6238 4.99053H67.209V10.3764H75.6238C76.388 10.3764 77.0313 10.3358 77.5548 10.2547C78.0783 10.1634 78.5019 10.0163 78.8265 9.8135C79.1507 9.6005 79.3813 9.32664 79.5171 8.99189C79.6637 8.65718 79.7368 8.2464 79.7368 7.75954Z" fill="#00C898"/>
<path d="M56.0773 11C56.0773 12.7953 55.7372 14.3827 55.0571 15.7621C54.3765 17.1314 53.4031 18.2776 52.1368 19.2005C50.8706 20.1236 49.3319 20.8234 47.5212 21.3001C45.721 21.7667 43.6959 22 41.4456 22C39.1954 22 37.1598 21.7667 35.3386 21.3001C33.528 20.8234 31.9842 20.1236 30.7074 19.2005C29.4305 18.2776 28.4466 17.1314 27.7559 15.7621C27.0651 14.3827 26.7197 12.7953 26.7197 11C26.7197 9.20471 27.0651 7.62243 27.7559 6.2531C28.4466 4.87366 29.4305 3.72245 30.7074 2.79945C31.9842 1.87644 33.528 1.18165 35.3386 0.715075C37.1598 0.238359 39.1954 0 41.4456 0C43.6959 0 45.721 0.238359 47.5212 0.715075C49.3319 1.18165 50.8706 1.87644 52.1368 2.79945C53.4031 3.72245 54.3765 4.87366 55.0571 6.2531C55.7372 7.62243 56.0773 9.20471 56.0773 11ZM50.19 11C50.19 10.219 50.0592 9.44306 49.7977 8.67218C49.5466 7.89118 49.0913 7.19132 48.432 6.57263C47.7828 5.9539 46.8933 5.45182 45.7628 5.06638C44.6326 4.68094 43.1935 4.48826 41.4456 4.48826C40.2734 4.48826 39.2425 4.57952 38.3529 4.76212C37.4633 4.93451 36.694 5.17796 36.0451 5.49239C35.3962 5.80681 34.852 6.17703 34.4124 6.60304C33.9728 7.01892 33.6222 7.47028 33.3605 7.95714C33.0989 8.43383 32.9105 8.93592 32.7953 9.46334C32.6907 9.98065 32.6384 10.4929 32.6384 11C32.6384 11.5173 32.6907 12.0396 32.7953 12.5671C32.9105 13.0945 33.0989 13.6017 33.3605 14.0885C33.6222 14.5652 33.9728 15.0115 34.4124 15.4274C34.852 15.8433 35.3962 16.2084 36.0451 16.5228C36.694 16.8271 37.4633 17.0705 38.3529 17.2531C39.2425 17.4255 40.2734 17.5117 41.4456 17.5117C43.1935 17.5117 44.6326 17.3191 45.7628 16.9336C46.8933 16.5482 47.7828 16.0461 48.432 15.4274C49.0913 14.8087 49.5466 14.1139 49.7977 13.343C50.0592 12.562 50.19 11.781 50.19 11Z" fill="#00C898"/>
<path d="M0 21.4373V17.0707L14.1765 5.11223H0.42388V0.532715H22.5441V4.36674L7.72402 16.8577H22.8581V21.4373H0Z" fill="#00C898"/>
<path d="M157.771 21.45H120.893V0.549988H157.771V21.45ZM132.517 2.44963L122.834 19.5495H128.409L130.146 16.3139H140.463L142.2 19.5495H147.776L138.093 2.44963H132.517ZM150.806 2.44963V19.5495H155.803V2.44963H150.806ZM138.699 12.9783H131.938L135.332 6.68121L138.699 12.9783Z" fill="#00C898"/>
</g>
<defs>
<clipPath id="clip0_4784_1772">
<rect width="158" height="22" fill="white"/>
</clipPath>
</defs>
</svg>
